<svg class="avatar-svg" viewBox="0 0 400 400" preserveAspectRatio="xMidYMax meet" fill="none"
  xmlns="http://www.w3.org/2000/svg" style="background:linear-gradient(120deg,#a1c4fd,#c2e9fb)">
  <g transform="translate(100 65)">
    <g clip-path="url(#a)">
      <path d="M154 319.5c-14.4-20-25.667-58.666-27-78L58.5 212 30 319.5h124z" fill="#F9C9B6" stroke="#000"
        stroke-width="4"></path>
      <mask id="b" style="mask-type:alpha" maskUnits="userSpaceOnUse" x="30" y="212" width="124" height="118">
        <path d="M154 329.5c-14.4-20-25.667-68.666-27-88L58.5 212 30 329.5h124z" fill="#F9C9B6"></path>
      </mask>
      <g mask="url(#b)">
        <ellipse cx="124" cy="210" rx="59" ry="54" fill="#000" style="mix-blend-mode:multiply"></ellipse>
      </g>
      <mask id="c" fill="#fff">
        <path fill-rule="evenodd" clip-rule="evenodd"
          d="m183.886 150.917-.083-.348a24.868 24.868 0 0 0-.084-.347l-16.396-68.437a15.008 15.008 0 0 1-.049-.203 14.655 14.655 0 0 0-.049-.203l-.073-.304h-.001c-10.218-41.444-51.995-66.928-93.569-56.967-41.574 9.96-67.267 51.61-57.594 93.185h-.002l16.992 70.918.014-.003c10.602 40.904 52.07 65.941 93.337 56.053 41.268-9.887 66.887-50.997 57.802-92.265l.013-.003-.258-1.076z">
        </path>
      </mask>
      <path fill-rule="evenodd" clip-rule="evenodd"
        d="m183.886 150.917-.083-.348a24.868 24.868 0 0 0-.084-.347l-16.396-68.437a15.008 15.008 0 0 1-.049-.203 14.655 14.655 0 0 0-.049-.203l-.073-.304h-.001c-10.218-41.444-51.995-66.928-93.569-56.967-41.574 9.96-67.267 51.61-57.594 93.185h-.002l16.992 70.918.014-.003c10.602 40.904 52.07 65.941 93.337 56.053 41.268-9.887 66.887-50.997 57.802-92.265l.013-.003-.258-1.076z"
        fill="#F9C9B6"></path>
      <path
        d="m183.886 150.917-3.894.914.002.009.002.009 3.89-.932zm-.167-.695-3.889.932.002.009.002.009 3.885-.95zm-16.396-68.437-3.893.923.003.01 3.89-.933zm-.049-.203-3.89.932 3.89-.932zm-.049-.203-3.89.932.003.01 3.887-.942zm-.073-.304 3.89-.932-.931-3.888-3.889.93.93 3.89zm-.001 0-3.884.958.951 3.857 3.863-.924-.93-3.89zM73.582 24.109l-.932-3.89.932 3.89zm-57.594 93.185.934 3.889 3.862-.927-.9-3.869-3.896.907zm-.002 0-.934-3.889-3.887.933.931 3.888 3.89-.932zm16.992 70.918-3.89.932.932 3.892 3.891-.934-.933-3.89zm.014-.003 3.872-1.004-.986-3.803-3.82.917.934 3.89zm93.337 56.053-.932-3.89.932 3.89zm57.802-92.265-.931-3.89-3.819.915.844 3.835 3.906-.86zm.013-.003.931 3.89 3.891-.932-.932-3.89-3.89.932zm3.636-1.991-.087-.365-7.779 1.865.078.329 7.788-1.829zm-.087-.365-.088-.364-7.771 1.899.08.33 7.779-1.865zm-24.26-66.92 16.397 68.437 7.779-1.864-16.397-68.436-7.779 1.864zm7.782-1.854-.051-.213-7.78 1.864.046.194 7.785-1.845zm-.051-.213-.051-.214-7.775 1.885.046.193 7.78-1.864zm-7.902 1.357.073.304 7.78-1.864-.073-.304-7.78 1.864zm4.819 2.959h.002l-1.861-7.781h-.001l1.86 7.78zm2.954-4.848c-10.744-43.578-54.671-70.373-98.385-59.9l1.864 7.78c39.435-9.448 79.061 14.724 88.753 54.035l7.768-1.915zm-98.385-59.9C28.936 30.692 1.922 74.484 12.092 118.2l7.792-1.813c-9.175-39.435 15.196-78.94 54.63-88.388l-1.864-7.78zM16.92 121.183l.002-.001-1.868-7.779-.002.001 1.868 7.779zm19.948 66.096-16.992-70.918-7.78 1.864 16.992 70.918 7.78-1.864zm-4.81-2.961-.014.004 1.867 7.779.014-.004-1.867-7.779zm-2.939 4.893c11.15 43.012 54.75 69.337 98.142 58.94l-1.864-7.78c-39.143 9.379-78.477-14.369-88.533-53.167l-7.744 2.007zm98.142 58.94c43.392-10.396 70.33-53.621 60.777-97.015l-7.813 1.72c8.617 39.143-15.684 78.137-54.828 87.515l1.864 7.78zm55.951-100.048-.012.003 1.863 7.78.012-.003-1.863-7.78zm-3.216 3.746.258 1.076 7.78-1.864-.258-1.076-7.78 1.864z"
        fill="#000" mask="url(#c)"></path>
    </g>
    <defs>
      <clipPath id="a">
        <path fill="#fff" d="M0 0h200v320H0z"></path>
      </clipPath>
    </defs>
  </g>
  <g transform="translate(160 160)" fill="#000">
    <ellipse cx="16.53" cy="29.402" rx="9" ry="13.5" transform="rotate(-6.776 16.53 29.402)"></ellipse>
    <ellipse cx="80.531" cy="19.402" rx="9" ry="13.5" transform="rotate(-6.276 80.531 19.402)"></ellipse>
  </g>
  <path d="M210.307 200.34c5.446-1.24 14.377.62 12.417 10.543-1.743 8.82-11.11 9.303-13.724 6.822" stroke="#000"
    stroke-width="4"></path>
  <path d="M232 153.214c5.667-2.666 19-5.1 27 6.5m-102.42 18.807c2.07-5.91 9.681-17.125 23.562-14.699" stroke="#000"
    stroke-width="4" stroke-linecap="round"></path>
  <g fill="#000">
    <path
      d="M276.177 97.397c-8.322 39.897-106.678 45.5-126.5 45.5-52.022 5.926-27.052 68.365-17.5 99.499-7.5 1-6.5 10-35.5-61.5C73.477 123.696 139.183 88.834 188 77c48.816-11.835 67.5-28.498 67.5-28.498 20.678 8.498 25.617 25.216 20.678 48.895z">
    </path>
    <path
      d="m271.134 170.947-15.818-53.44 10.038-9.143c10.755 37.088 11.247 58.624 5.78 62.583zM146 216c-5.6-27.2-19.667-22.333-29-21l-10-44 40.584-8.494c.752-.24 1.557-.41 2.416-.506l-2.416.506c-18.15 5.793-5.627 52.29 9.416 71.494l-11 2zM90.989 113.363c8.845-4.454 19.292-1.876 23.41-.03l-11.772 14.88c3.035-4.856-6.494-11.923-11.638-14.85z">
    </path>
    <path d="M76 130.5c11.6-6.8 22.833-4.5 27-2.5l-4.5 15.5c-1.2-8.4-15.5-12.167-22.5-13z"></path>
  </g>
  <g stroke="#000" stroke-width="4">
    <path d="m150.5 194.5-34.5 6.625" stroke-linecap="round"></path>
    <path
      d="M146.488 177.94a6 6 0 0 1 4.984-7.405l38.716-5.442a6 6 0 0 1 6.777 5.107l5.567 39.61a6 6 0 0 1-5.107 6.777l-34.472 4.845a6 6 0 0 1-6.654-4.478l-9.811-39.015zm122.263-16.976a6 6 0 0 0-6.832-5.744l-38.716 5.44a6 6 0 0 0-5.107 6.777l5.567 39.611a6 6 0 0 0 6.777 5.107l34.472-4.845a6 6 0 0 0 5.162-6.139l-1.323-40.207zM199.5 189.125l22-3.5">
    </path>
  </g>
  <path d="M213 244.697c4.167-2.334 21-5.3 21 1.5 0 8.5-11.5 8-11.5 8s13.045-3.162 10.5 6c-2.5 9-9.5 5.5-11.5 4.5"
    stroke="#000" stroke-width="4"></path>
  <path
    d="M135.5 201.676a23.778 23.778 0 0 0-7.42-1.176c-10.493 0-19 6.5-18 18.5 1.042 12.5 8.507 17 19 17 1.168 0 2.31-.102 3.42-.299 1.21-.214 2.381-.54 3.5-.966"
    stroke="#000" stroke-width="8"></path>
  <path
    d="M136.5 234.536a19.382 19.382 0 0 1-7.42 1.464c-10.493 0-17.958-4.5-19-17-1-12 7.507-18.5 18-18.5 3.138 0 6.187.606 8.92 1.73l-.5 32.306z"
    fill="#F9C9B6"></path>
  <path d="M132.5 209c-4-1.833-12.8-2.8-16 8" stroke="#000" stroke-width="4"></path>
  <path d="M122 209.5c2.167 1.833 6.3 7.5 5.5 15.5" stroke="#000" stroke-width="4"></path>
  <g transform="translate(99 232)">
    <circle cx="25" cy="4" r="4" fill="#F4D150"></circle>
    <circle cx="26" cy="3" r="1" fill="#FFEDEF"></circle>
  </g>
  <path
    d="M332.866 402.863H59.956l.104-.212c4.545-9.256 12.93-26.332 23.842-41.61 6.194-8.67 13.128-16.654 20.54-22.27 7.412-5.615 15.12-8.73 22.95-8.045 15.054 1.317 28.463 9.56 41.925 17.834 1.275.784 2.551 1.569 3.829 2.348 14.485 8.827 29.359 17.023 45.719 13.436 5.534-1.213 9.264-3.81 11.611-7.164 2.314-3.307 3.146-7.15 3.29-10.663.144-3.518-.395-6.843-.955-9.26a39.89 39.89 0 0 0-.747-2.773c3.625-3.649 7.463-5.774 11.425-6.73 4.295-1.038 8.887-.738 13.718.69 9.73 2.879 20.14 10.253 30.3 19.735 18.614 17.373 35.693 41.144 45.359 54.684z"
    fill="#C09FFF" stroke="#000" stroke-width="4.274"></path>
</svg>